/* XPM */
static char *icon_xpm[] = {
/* columns rows colors chars-per-pixel */
"32 32 134 2 ",
"   c #000067",
".  c #00006E",
"X  c #000074",
"o  c #00007C",
"O  c #91917F",
"+  c #9B967F",
"@  c #A4A57C",
"#  c #AFA77D",
"$  c #ABAA7B",
"%  c #B4AD7C",
"&  c #C1B67B",
"*  c #CAC977",
"=  c #C7C378",
"-  c #CBC179",
";  c #DBCF78",
":  c #DBD576",
">  c #E4DC76",
",  c #FFFF67",
"<  c #FFFE6B",
"1  c #EBE872",
"2  c #FDEE73",
"3  c #FEF272",
"4  c #FFFD70",
"5  c #000681",
"6  c #030B84",
"7  c #071086",
"8  c #091187",
"9  c #07118F",
"0  c #0D1589",
"q  c #0F188B",
"w  c #10178A",
"e  c #141C8D",
"r  c #181E8D",
"t  c #000195",
"y  c #030A92",
"u  c #00009A",
"i  c #071191",
"p  c #0B1391",
"a  c #0F1990",
"s  c #121A90",
"d  c #1E1F91",
"f  c #17208F",
"g  c #19218F",
"h  c #1C2491",
"j  c #20288E",
"k  c #2A308D",
"l  c #33348D",
"z  c #34388D",
"x  c #3A3C8C",
"c  c #212691",
"v  c #242C94",
"b  c #2B3297",
"n  c #2D3498",
"m  c #313497",
"M  c #313598",
"N  c #333A9B",
"B  c #3E418B",
"V  c #42468A",
"C  c #4D4E89",
"Z  c #5A5C87",
"A  c #646586",
"S  c #6F6F85",
"D  c #756C85",
"F  c #767484",
"G  c #787783",
"H  c #7D7983",
"J  c #484DA4",
"K  c #4D52A7",
"L  c #5357AA",
"P  c #5359AB",
"I  c #5B61AF",
"U  c #6367B2",
"Y  c #676CB5",
"T  c #686EB6",
"R  c #6C71B7",
"E  c #6E73B8",
"W  c #7176BA",
"Q  c #7479BB",
"!  c #787DBE",
"~  c #878481",
"^  c #979180",
"/  c #8186C1",
"(  c #878BC4",
")  c #8C90C7",
"_  c #8F94C9",
"`  c #9494C7",
"'  c #9195C9",
"]  c #979BCC",
"[  c #9A9ECE",
"{  c #9EA1CF",
"}  c #9FA3D0",
"|  c #A3A5CF",
" . c #A2A5D0",
".. c #A5A9D3",
"X. c #ABAED6",
"o. c #AEB1D7",
"O. c #B0B1D7",
"+. c #B2B4D9",
"@. c #B7B9DC",
"#. c #BBBEDE",
"$. c #BEC0DF",
"%. c #C7C7E2",
"&. c #C2C4E1",
"*. c #CACAE4",
"=. c #CACCE5",
"-. c #CCCEE6",
";. c #CED0E7",
":. c #CFD1E7",
">. c #CFD0E8",
",. c #D0D2E8",
"<. c #D1D2E9",
"1. c #D5D8EB",
"2. c #D9DBEC",
"3. c #E0E1F0",
"4. c #E4E4F1",
"5. c #E5E5F2",
"6. c #E5E6F2",
"7. c #E6E7F2",
"8. c #E7E7F3",
"9. c #E6E7F3",
"0. c #E7E8F3",
"q. c #E8E8F3",
"w. c #ECEDF6",
"e. c #EDEEF6",
"r. c #EDEEF6",
"t. c #F0F1F8",
"y. c #F1F1F8",
"u. c #F4F5FA",
"i. c #F4F4F9",
"p. c #FCFCFD",
"a. c #FDFDFE",
"s. c #FFFEFE",
"d. c white",
"f. c #FFFFFF",
/* pixels */
"g g g g g g g g g g g g g g g g g g g g g g g g a i g g g g g g ",
"g g g g g g g g g g g g g g g g g g g g g g g s k z i g g g g g ",
"g g g g g g g g g g g g g g g g g g g g g g g t G & t g g g g g ",
"g g g g g g g g g g g g g g g g g g g g g g g t # , s i g g g g ",
"g g g g g g g g g g g g g g g g g g g s t t t t > , C u t t y g ",
"g g g g g g g g g g g g g g g g g g i B @ O F + 4 , - D ~ @ S i ",
"g g g g g g g g g g g g g g g g g g s g + , , , 3 2 4 , , : B i ",
"g g r r r r r r r r g g g g g g g g h s t x * 4 3 3 3 1 F t y g ",
"h q o 5 5 5 5 5 5 o o 8 h g g g g g g g g t z 4 4 4 , ^ u s g g ",
"q h } $.#.#.#.$.#...W g o r h g g g g g g t H , 4 2 , ; i a g g ",
"o T d.d.d.d.d.d.d.d.d.q.I o r g g g g g s y 3 , C d = , Z t g g ",
"o W d.d.6.%.*.*.*.y.d.d.d.U o h g g g g t A > l t t t $ % y r g ",
"o R d.d.Y X 7 6 6 r ( d.d.d.v 6 g g g g s V g t g g i y B j r g ",
"o R d.d.E o r r r 6 . ) d.d.' o g g g g g i 9 g r g g s i g g g ",
"o R d.d.W o g g g h 6 q q.d.;.6 r g h r o o 5 6 o o 6 h h g g g ",
"o R d.d.W o g g g g f o #.d.6.g q h 5 5 K ' @.%.o./ N o q h g g ",
"o R d.d.W o g g g g f o #.d.6.g q o c @.d.d.d.d.d.d.d.) 5 6 h g ",
"o R d.d.W o g g g h 6 q q.d.>.6 o g q.d.d.y.+. .$.d.d.d.@.o w g ",
"o R d.d.T X q q q o X [ d.d._ X o ,.d.d...r o o o M 1.d.d./ o h ",
"o R d.d.Q o h g r M } d.d.d.h X I d.d.@.X 5 g g r X r 0.d.d.h 8 ",
"o R d.d.y.6.0.6.6.d.d.d.d.L o o X.d.d.n o h g g g h X W d.d.Y o ",
"o R d.d.d.d.d.d.d.d.d.,.J o r 6 ,.d.,.6 r g g g g g 5 N d.d._ o ",
"o R d.d.%.` {  .{ ( P 8 o h r q 2.d.@.o g g g g g g 6 v d.d.[ o ",
"o R d.d.I   o o o o o q h g r 6 >.d.;.6 r g g g g g 5 N d.d.' o ",
"o R d.d.W o g r g g g g g g g o X.d.d.b o h g g g h X E d.d.T o ",
"o R d.d.W o g g g g g g g g g o I d.d.+.X 5 g g r X w 6.d.d.h 8 ",
"o R d.d.W o g g g g g g g g g r o ,.d.d...r o o o m ,.d.d.( o h ",
"o Q d.d.! o g g g g g g g g g h 5 g q.d.d.y.O.| #.d.d.d.#.o q h ",
"o U d.d.R o g g g g g g g g g g h o c #.d.d.d.d.d.d.d.' 6 6 h g ",
"r r ] [ g q g g g g g g g g g g g h 5 5 K ' @.%.+./ N o 8 h g g ",
"h r o o r h g g g g g g g g g g g g h r o o 5 6 5 o 6 g h g g g ",
"g g g g g g g g g g g g g g g g g g g g g g r r r g g g g g g g "
};
