/* XPM */
static char *icon_xpm[] = {
/* columns rows colors chars-per-pixel */
"32 32 29 1 ",
"  c black",
". c #0B0B0B",
"X c gray13",
"o c gray21",
"O c gray22",
"+ c #464646",
"@ c #4E4E4E",
"# c gray32",
"$ c #5F5F5F",
"% c gray39",
"& c DimGray",
"* c #767676",
"= c gray47",
"- c #848484",
"; c #888888",
": c #929292",
"> c gray61",
", c #A4A4A4",
"< c #ACACAC",
"1 c #B7B7B7",
"2 c gray75",
"3 c #C5C5C5",
"4 c gray80",
"5 c #D7D7D7",
"6 c gray87",
"7 c #E2E2E2",
"8 c #EFEFEF",
"9 c #F4F4F4",
"0 c white",
/* pixels */
"00000000000000000000000000000000",
"00000000000000000000000000000000",
"00000000000000000000000000000000",
"00000000000000000000000000000000",
"00000000000000000000000000000000",
"00000000000000000000000000000000",
"00000000000000000000000000000000",
"00000000000000000000000000000000",
"00000000000000000000000000000000",
"009$ 30000000< :000          400",
"0006 o8000006 @9000  ********500",
"0000, -00000$ 50000  00000000000",
"00000% 3000, ,00000  00000000000",
"000006 O806 %000000  00000000000",
"000000< ;9$.7000000  00000000000",
"0000000& % 10000000  ========500",
"00000007. *00000000          400",
"00000006  +90000000  88888888000",
"0000009#X; :0000000  00000000000",
"000000: 20$ 4000000  00000000000",
"000004 =006 O900000  00000000000",
"00008Oo8000, ;00000  00000000000",
"0000- 200000$ 30000  00000000000",
"0002 =0000006 o8000          400",
"008&&80000000<%>000%%%%%%%%%%500",
"00000000000000000000000000000000",
"00000000000000000000000000000000",
"00000000000000000000000000000000",
"00000000000000000000000000000000",
"00000000000000000000000000000000",
"00000000000000000000000000000000",
"00000000000000000000000000000000"
};
